<?xml version="1.0" encoding="UTF-8"?>
<svg version="1.1" xmlns="http://www.w3.org/2000/svg" width="512" height="512">
<path d="M0 0 C141.24 0 282.48 0 428 0 C428.0928125 61.7821875 428.0928125 61.7821875 428.1875 124.8125 C428.21481201 137.8163208 428.24212402 150.8201416 428.27026367 164.21801758 C428.28381348 180.10095215 428.28381348 180.10095215 428.28633118 187.53715515 C428.28912537 192.72921371 428.30011542 197.92117813 428.31672668 203.11320496 C428.3378975 209.74020808 428.34346799 216.36710405 428.33921683 222.99414766 C428.34010553 225.42360124 428.34603701 227.85305959 428.35764539 230.2824856 C428.37262728 233.57124773 428.36894821 236.85949502 428.36076355 240.14826965 C428.37387054 241.56473801 428.37387054 241.56473801 428.38724232 243.00982189 C428.30076817 255.98986567 423.92824637 267.47648099 415.15234375 277.078125 C404.25226351 286.81104601 393.5487673 288.30078558 379.56524658 288.26742554 C378.08211433 288.27116428 376.59898405 288.2757667 375.11585689 288.28115618 C371.04831982 288.29337393 366.98086509 288.29312716 362.91331387 288.29076743 C358.52326125 288.29035895 354.13323492 288.30140138 349.74319458 288.31088257 C341.14512147 288.32748691 332.54707579 288.33299186 323.94898799 288.33410732 C316.95887489 288.33505808 309.96877083 288.33916978 302.97866058 288.34550858 C283.1542251 288.36311959 263.32981126 288.37234769 243.5053679 288.37084763 C241.90266196 288.37072776 241.90266196 288.37072776 240.26757812 288.37060547 C239.19780073 288.37052371 238.12802334 288.37044195 237.02582845 288.37035771 C219.69044339 288.36954489 202.35514524 288.38868189 185.01978531 288.4168822 C167.213899 288.44561904 149.40805505 288.45942205 131.60214496 288.45769465 C121.60792798 288.45703102 111.6138021 288.46251163 101.61960602 288.48405075 C93.10996288 288.50227307 84.60045214 288.50660125 76.09079793 288.4930319 C71.75117282 288.48650752 67.41180164 288.48636583 63.07220078 288.5037384 C59.09457363 288.51949777 55.11740115 288.51657658 51.1397849 288.49917014 C49.70575472 288.49610651 48.27169037 288.49970853 46.83770052 288.51089029 C33.61048159 288.60714811 23.11823696 285.77144092 13 277 C2.87099715 266.21125367 -0.32952852 254.90826062 -0.24050903 240.38877869 C-0.24222107 239.35859116 -0.24393311 238.32840363 -0.24569702 237.26699829 C-0.24899252 233.82367917 -0.23798457 230.38055704 -0.22705078 226.93725586 C-0.2264378 224.42307065 -0.22670563 221.9088851 -0.2277813 219.39470005 C-0.22818647 213.35309652 -0.21963743 207.31156853 -0.20677864 201.26998389 C-0.19234179 194.27670807 -0.19078712 187.28345293 -0.18920898 180.29016113 C-0.17872125 161.83926466 -0.15079888 143.38838142 -0.125 124.9375 C-0.08375 83.708125 -0.0425 42.47875 0 0 Z M70.9765625 59.7109375 C70.30753906 60.53464844 70.30753906 60.53464844 69.625 61.375 C68.93277344 62.19097656 68.93277344 62.19097656 68.2265625 63.0234375 C64.02930277 69.78717451 64.66773402 77.21370576 64.6875 84.875 C64.67138672 86.11636719 64.65527344 87.35773438 64.63867188 88.63671875 C64.63431495 96.81902462 65.29274829 102.74574731 69.75 109.75 C77.5842825 117.5842825 86.24082905 117.23242843 96.6875 117.3125 C97.92951172 117.34150391 99.17152344 117.37050781 100.45117188 117.40039062 C108.56190873 117.45626746 115.71264468 117.00999413 121.87182617 111.24926758 C128.40817314 104.2073806 128.37272776 97.00610626 128.37060547 87.81762695 C128.37496645 85.70376237 128.41128866 83.59200979 128.44921875 81.47851562 C128.52233665 72.85430051 128.06269866 66.70800426 122.25390625 59.9765625 C121.69574219 59.53054687 121.13757813 59.08453125 120.5625 58.625 C120.00691406 58.16351563 119.45132813 57.70203125 118.87890625 57.2265625 C112.62514151 53.14406327 106.00435216 53.62773459 98.81762695 53.62939453 C96.70376237 53.62503355 94.59200979 53.58871134 92.47851562 53.55078125 C83.84043515 53.47760964 77.76132648 53.97401352 70.9765625 59.7109375 Z M187.9765625 59.82421875 C187.53054687 60.43910156 187.08453125 61.05398437 186.625 61.6875 C186.16351563 62.28949219 185.70203125 62.89148438 185.2265625 63.51171875 C181.81261687 70.43746196 181.68379033 77.91899302 181.75 85.5 C181.74226562 86.38558594 181.73453125 87.27117187 181.7265625 88.18359375 C181.74980583 96.09794624 182.03691487 103.79712254 187.625 109.875 C188.25664062 110.59429687 188.88828125 111.31359375 189.5390625 112.0546875 C196.94111439 117.90583328 204.96467006 117.46006064 214 117.375 C215.23234375 117.38660156 216.4646875 117.39820313 217.734375 117.41015625 C225.66127818 117.38464047 232.03563507 117.13373608 238.4609375 112.0546875 C239.09257812 111.33539063 239.72421875 110.61609375 240.375 109.875 C241.02210938 109.17117188 241.66921875 108.46734375 242.3359375 107.7421875 C246.43059323 100.99465622 246.3171143 93.18458714 246.25 85.5 C246.25773437 84.61441406 246.26546875 83.72882813 246.2734375 82.81640625 C246.25208116 75.54457134 245.96482958 67.67479165 241.375 61.6875 C240.70597656 60.76517578 240.70597656 60.76517578 240.0234375 59.82421875 C232.84561908 53.35309674 225.38512609 53.36953942 216.1640625 53.47851562 C214.0040664 53.49995963 211.84739481 53.47865103 209.6875 53.453125 C201.04590236 53.43447856 194.62015799 53.83472243 187.9765625 59.82421875 Z M305.9765625 59.74609375 C305.53054688 60.30425781 305.08453125 60.86242187 304.625 61.4375 C304.16351563 61.99308594 303.70203125 62.54867187 303.2265625 63.12109375 C299.14406327 69.37485849 299.62773459 75.99564784 299.62939453 83.18237305 C299.62503355 85.29623763 299.58871134 87.40799021 299.55078125 89.52148438 C299.47760964 98.15956485 299.97401352 104.23867352 305.7109375 111.0234375 C306.26007813 111.46945312 306.80921875 111.91546875 307.375 112.375 C307.91898437 112.83648437 308.46296875 113.29796875 309.0234375 113.7734375 C315.78717451 117.97069723 323.21370576 117.33226598 330.875 117.3125 C332.73705078 117.33666992 332.73705078 117.33666992 334.63671875 117.36132812 C342.81902462 117.36568505 348.74574731 116.70725171 355.75 112.25 C363.5842825 104.4157175 363.23242843 95.75917095 363.3125 85.3125 C363.34150391 84.07048828 363.37050781 82.82847656 363.40039062 81.54882812 C363.45626746 73.43809127 363.00999413 66.28735532 357.24926758 60.12817383 C350.2073806 53.59182686 343.00610626 53.62727224 333.81762695 53.62939453 C331.70376237 53.62503355 329.59200979 53.58871134 327.47851562 53.55078125 C318.85430051 53.47766335 312.70800426 53.93730134 305.9765625 59.74609375 Z M70 178 C64.46071848 186.00950166 64.75996467 193.23327645 64.6875 202.6875 C64.65849609 203.92951172 64.62949219 205.17152344 64.59960938 206.45117188 C64.54373254 214.56190873 64.99000587 221.71264468 70.75073242 227.87182617 C77.7926194 234.40817314 84.99389374 234.37272776 94.18237305 234.37060547 C96.29623763 234.37496645 98.40799021 234.41128866 100.52148438 234.44921875 C109.14569949 234.52233665 115.29199574 234.06269866 122.0234375 228.25390625 C122.46945313 227.69574219 122.91546875 227.13757813 123.375 226.5625 C123.83648437 226.00691406 124.29796875 225.45132813 124.7734375 224.87890625 C128.85593673 218.62514151 128.37226541 212.00435216 128.37060547 204.81762695 C128.37496645 202.70376237 128.41128866 200.59200979 128.44921875 198.47851562 C128.52239036 189.84043515 128.02598648 183.76132648 122.2890625 176.9765625 C121.73992187 176.53054688 121.19078125 176.08453125 120.625 175.625 C119.80902344 174.93277344 119.80902344 174.93277344 118.9765625 174.2265625 C112.21282549 170.02930277 104.78629424 170.66773402 97.125 170.6875 C95.88363281 170.67138672 94.64226562 170.65527344 93.36328125 170.63867188 C84.32895309 170.63386126 76.70714063 171.29285937 70 178 Z M187.625 178.125 C186.97789062 178.82882812 186.33078125 179.53265625 185.6640625 180.2578125 C181.56940677 187.00534378 181.6828857 194.81541286 181.75 202.5 C181.74226562 203.38558594 181.73453125 204.27117187 181.7265625 205.18359375 C181.74791884 212.45542866 182.03517042 220.32520835 186.625 226.3125 C187.07101563 226.92738281 187.51703125 227.54226563 187.9765625 228.17578125 C195.15438092 234.64690326 202.61487391 234.63046058 211.8359375 234.52148438 C213.9959336 234.50004037 216.15260519 234.52134897 218.3125 234.546875 C226.95409764 234.56552144 233.37984201 234.16527757 240.0234375 228.17578125 C240.69246094 227.25345703 240.69246094 227.25345703 241.375 226.3125 C241.83648437 225.71050781 242.29796875 225.10851562 242.7734375 224.48828125 C246.18738313 217.56253804 246.31620967 210.08100698 246.25 202.5 C246.25773437 201.61441406 246.26546875 200.72882813 246.2734375 199.81640625 C246.25019417 191.90205376 245.96308513 184.20287746 240.375 178.125 C239.74335938 177.40570313 239.11171875 176.68640625 238.4609375 175.9453125 C231.05888561 170.09416672 223.03532994 170.53993936 214 170.625 C212.76765625 170.61339844 211.5353125 170.60179687 210.265625 170.58984375 C201.34172271 170.61856876 193.87105841 171.01214164 187.625 178.125 Z M304.5625 178.4375 C299.22077426 184.99671309 299.62753488 192.13101894 299.62939453 200.18237305 C299.62503355 202.29623763 299.58871134 204.40799021 299.55078125 206.52148438 C299.47766335 215.14569949 299.93730134 221.29199574 305.74609375 228.0234375 C306.58333984 228.69246094 306.58333984 228.69246094 307.4375 229.375 C307.99308594 229.83648437 308.54867188 230.29796875 309.12109375 230.7734375 C315.37485849 234.85593673 321.99564784 234.37226541 329.18237305 234.37060547 C331.29623763 234.37496645 333.40799021 234.41128866 335.52148438 234.44921875 C344.15956485 234.52239036 350.23867352 234.02598648 357.0234375 228.2890625 C357.69246094 227.46535156 357.69246094 227.46535156 358.375 226.625 C358.83648437 226.08101562 359.29796875 225.53703125 359.7734375 224.9765625 C363.97069723 218.21282549 363.33226598 210.78629424 363.3125 203.125 C363.32861328 201.88363281 363.34472656 200.64226562 363.36132812 199.36328125 C363.36568505 191.18097538 362.70725171 185.25425269 358.25 178.25 C350.4157175 170.4157175 341.75917095 170.76757157 331.3125 170.6875 C330.07048828 170.65849609 328.82847656 170.62949219 327.54882812 170.59960938 C318.29802756 170.53587837 311.05506615 171.44277998 304.5625 178.4375 Z " fill="#000000" transform="translate(42,192)"/>
<path d="M0 0 C0.92232422 0.00902344 1.84464844 0.01804688 2.79492188 0.02734375 C5.05105809 0.0507234 7.30663684 0.08349084 9.5625 0.125 C9.66046875 1.36894531 9.7584375 2.61289063 9.859375 3.89453125 C11.20270281 19.43027357 13.88545107 32.81692073 26.25 43.4375 C35.0013225 50.07369924 45.6525843 53.0149327 56.5625 52.125 C68.66945287 50.19963553 77.70050664 45.2873357 85.5859375 35.85546875 C93.68165236 24.67186265 93.19395983 14.49467178 94.5625 0.125 C144.0625 0.125 193.5625 0.125 244.5625 0.125 C245.2225 7.055 245.8825 13.985 246.5625 21.125 C249.85860744 32.35618091 256.61808035 40.88949257 266.5625 47.125 C277.60048876 52.61064698 288.15410339 53.57376555 299.9296875 50.03125 C310.41731892 46.42126411 317.57634392 40.51706901 323.23828125 30.9453125 C326.59994192 23.78566943 328.08597546 16.91504704 328.75 9.0625 C328.8727832 7.7640918 328.8727832 7.7640918 328.99804688 6.43945312 C329.19565552 4.33550226 329.38045005 2.23035418 329.5625 0.125 C345.60144973 -0.44052614 357.8798684 0.13050025 370.5625 11.125 C394.35250403 36.46454452 383.5625 75.66692577 383.5625 107.125 C242.3225 107.125 101.0825 107.125 -44.4375 107.125 C-44.4375 25.10339168 -44.4375 25.10339168 -31.58984375 11.046875 C-22.2342614 2.69307007 -12.24425182 -0.22919406 0 0 Z " fill="#000000" transform="translate(86.4375,63.875)"/>
<path d="M0 0 C5.16734659 3.11603698 9.21864988 7.39895554 11.44140625 13.05859375 C11.66885634 15.75464762 11.79299621 18.3454019 11.8125 21.04296875 C11.82604271 22.20460541 11.82604271 22.20460541 11.83985901 23.38970947 C11.85434438 25.02701973 11.863244 26.66438766 11.86694336 28.30175781 C11.87880235 30.78682134 11.92796679 33.26936922 11.97851562 35.75390625 C12.12972472 50.56006968 12.12972472 50.56006968 6.44140625 57.05859375 C0.17148255 62.86974254 -4.64682792 63.52547503 -13.07421875 63.359375 C-17.71833425 62.95848162 -21.02378909 62.15872406 -24.55859375 59.05859375 C-31.27535563 50.88038258 -31.8243587 43.97209496 -31.90869141 33.7097168 C-31.92515382 32.24633778 -31.95231422 30.78303588 -31.99072266 29.32006836 C-32.22257526 20.42600079 -32.15165127 12.50013965 -26.55859375 5.05859375 C-19.53014734 -1.57249152 -9.12324792 -3.35679809 0 0 Z " fill="#000000" transform="translate(148.55859375,32.94140625)"/>
<path d="M0 0 C5.70810105 2.42262428 8.67377581 7.07843896 11.515625 12.41796875 C13.26288714 17.65975518 12.82062054 23.27840565 12.86572266 28.7668457 C12.88218507 30.23022472 12.90934547 31.69352662 12.94775391 33.15649414 C13.17960651 42.05056171 13.10868252 49.97642285 7.515625 57.41796875 C1.28430518 63.29699388 -4.70411886 63.82524356 -12.95703125 63.765625 C-19.25201648 63.14518902 -22.67494933 60.37024381 -26.859375 55.85546875 C-30.1230478 50.95995955 -30.81291612 47.31904187 -30.85546875 41.43359375 C-30.86901146 40.27195709 -30.86901146 40.27195709 -30.88282776 39.08685303 C-30.89731313 37.44954277 -30.90621275 35.81217484 -30.90991211 34.17480469 C-30.9217711 31.68974116 -30.97093554 29.20719328 -31.02148438 26.72265625 C-31.17269347 11.91649282 -31.17269347 11.91649282 -25.484375 5.41796875 C-18.09922481 -1.42680459 -9.77140602 -2.28921305 0 0 Z " fill="#000000" transform="translate(382.484375,32.58203125)"/>
</svg>
