<?xml version="1.0" encoding="UTF-8"?>
<svg version="1.1" xmlns="http://www.w3.org/2000/svg" width="512" height="512">
<path d="M0 0 C1.16613831 -0.0071553 2.33227661 -0.01431061 3.53375244 -0.02168274 C4.80962219 -0.02437164 6.08549194 -0.02706055 7.40002441 -0.02983093 C8.76043876 -0.03609925 10.12085141 -0.04274638 11.48126221 -0.04974365 C15.94700944 -0.07075235 20.41275686 -0.08114684 24.87854004 -0.09111023 C26.4198661 -0.09515975 27.96119199 -0.09927673 29.5025177 -0.10346031 C36.74910448 -0.12250933 43.99568112 -0.13673786 51.24228811 -0.14507228 C59.58488286 -0.15482731 67.92721105 -0.18110241 76.26971197 -0.22157317 C82.73107539 -0.25183309 89.19236287 -0.26655069 95.65379572 -0.26985329 C99.50627133 -0.27219362 103.35846213 -0.28101933 107.21086121 -0.30631447 C110.84220133 -0.32977229 114.47307274 -0.3337584 118.1044693 -0.32355309 C120.05355374 -0.32282969 122.00261532 -0.34179818 123.95159912 -0.36161804 C136.09145673 -0.29070261 145.60822493 2.85468717 155.28479004 10.14717102 C156.15104004 10.72467102 157.01729004 11.30217102 157.90979004 11.89717102 C166.67541173 20.2014442 171.33270852 31.93546955 176.45617676 42.64741516 C177.47643918 44.77268338 178.50901752 46.89163909 179.54260254 49.01045227 C179.8448172 49.65323624 180.14703186 50.2960202 180.45840454 50.95828247 C183.21152928 56.58756334 185.84887356 60.25832741 191.84094238 62.44477844 C197.30725932 63.53550544 202.83472345 63.40639325 208.38635254 63.38545227 C210.75745198 63.4008775 213.12854583 63.41718154 215.49963379 63.4342804 C219.19881628 63.45067444 222.89758619 63.45969446 226.59680176 63.45259094 C246.00668028 63.43832088 260.91520834 64.06996125 275.43322754 78.24482727 C284.78835276 88.10422504 288.59722591 98.78956362 288.55221558 112.17138672 C288.55674669 113.16528768 288.5612778 114.15918864 288.56594622 115.18320781 C288.57858159 118.50547166 288.57697038 121.82757139 288.57531738 125.14985657 C288.58130322 127.53533132 288.58810889 129.92080414 288.59567261 132.30627441 C288.61150157 138.10931567 288.61778084 143.91230735 288.61889736 149.71536913 C288.6198494 154.43573832 288.62396743 159.15609416 288.63029861 163.87645912 C288.64790422 177.27667783 288.65713874 190.67686457 288.65563767 204.07709493 C288.65555775 204.79881135 288.65547784 205.52052777 288.65539551 206.26411438 C288.65531375 206.98671815 288.65523199 207.70932192 288.65514775 208.45382277 C288.6543354 220.15620575 288.67346185 231.85845986 288.70167224 243.56080558 C288.7304486 255.59346634 288.74420988 267.62606435 288.74248469 279.65876037 C288.74182235 286.4074163 288.74724578 293.15593718 288.76884079 299.904562 C288.7882478 306.25512622 288.78833045 312.60540587 288.77380753 318.9559803 C288.77172131 321.2810953 288.77640902 323.60622822 288.78852844 325.93131256 C288.87954723 344.60937367 287.17327175 357.66875441 273.97229004 371.89717102 C262.60615865 382.65440251 250.16250867 384.60213951 235.04043579 384.53485107 C233.50592786 384.53902938 231.97142302 384.54450961 230.43692386 384.55117089 C226.2412371 384.56557912 222.04574755 384.5613953 217.85005021 384.55400407 C213.31687485 384.54926322 208.78374159 384.56179037 204.25057983 384.57202148 C195.3778425 384.58919692 186.50517603 384.59005209 177.6324264 384.58480858 C170.41880141 384.58076327 163.20519733 384.58221473 155.99157333 384.58755684 C154.45015112 384.58867947 154.45015112 384.58867947 152.87758907 384.58982478 C150.78982918 384.5913563 148.70206929 384.59289465 146.61430942 384.59443975 C127.04601424 384.60816028 107.47775908 384.60273027 87.90946482 384.59125454 C70.01882233 384.58132291 52.12828327 384.59426243 34.23765673 384.61818873 C15.8542297 384.64258829 -2.52914916 384.65218547 -20.91259205 384.64553601 C-31.22816483 384.64204566 -41.54365808 384.64426368 -51.8592186 384.66178703 C-60.6406877 384.67651971 -69.42202126 384.6771305 -78.20348774 384.65971612 C-82.68096791 384.65121251 -87.15820606 384.64904092 -91.63567352 384.66436768 C-95.74029864 384.67824385 -99.84447505 384.6734143 -103.9490744 384.65412844 C-105.42811655 384.65037707 -106.90719489 384.65326538 -108.3862047 384.66374009 C-124.28665606 384.76827832 -135.78491969 380.67152676 -147.46520996 369.83467102 C-156.61383597 360.16819825 -160.18913305 348.85033565 -160.10289001 335.76219177 C-160.10827555 334.76572754 -160.11366109 333.7692633 -160.11920983 332.74260318 C-160.13342822 329.42957672 -160.12640072 326.11695327 -160.1192627 322.8039093 C-160.12496946 320.41799093 -160.13193491 318.0320753 -160.14006042 315.64616394 C-160.15611564 309.8535343 -160.15809924 304.06102937 -160.15284752 298.26838221 C-160.14879473 293.55666071 -160.1502625 288.84497118 -160.15559578 284.13325119 C-160.1563442 283.46088262 -160.15709262 282.78851405 -160.15786372 282.09577068 C-160.15939531 280.72954679 -160.16093366 279.3633229 -160.16247869 277.99709903 C-160.1761851 265.2044924 -160.17077925 252.41194704 -160.15929348 239.61934184 C-160.14936403 227.93654358 -160.16230004 216.25390376 -160.18622767 204.57112993 C-160.21065735 192.55192706 -160.220217 180.53279786 -160.21357495 168.51357067 C-160.21009117 161.77502832 -160.21225882 155.03660773 -160.22982597 148.29808426 C-160.245325 141.95977883 -160.24130632 135.62177523 -160.22252083 129.2834816 C-160.21884314 126.96320655 -160.22191935 124.64290899 -160.23240662 122.32265472 C-160.31026898 103.66524135 -158.58836642 90.6090696 -145.40270996 76.39717102 C-134.96960331 66.5229808 -123.23809598 63.70252781 -109.24255371 63.74092102 C-108.07946182 63.73008484 -106.91636993 63.71924866 -105.71803284 63.70808411 C-100.78410623 63.66255157 -95.85023651 63.65077025 -90.9161377 63.63594055 C-87.29558988 63.62018555 -83.67547134 63.58717914 -80.05505371 63.55342102 C-78.95169174 63.55644226 -77.84832977 63.5594635 -76.71153259 63.56257629 C-66.08570884 63.47014951 -66.08570884 63.47014951 -57.00794983 58.54698181 C-51.41634482 51.89937445 -48.09220235 43.09128031 -44.39782715 35.27949524 C-37.02068687 19.74766562 -28.63573418 8.12717195 -11.94177246 1.87373352 C-7.84043977 0.53540391 -4.33723472 0.01829479 0 0 Z M-16.71520996 131.14717102 C-17.45126465 131.87291321 -18.18731934 132.5986554 -18.94567871 133.34638977 C-34.25257771 149.38655339 -43.9683521 172.29716533 -46.71520996 194.14717102 C-46.84927246 195.15263977 -46.98333496 196.15810852 -47.12145996 197.19404602 C-50.04604762 225.50937197 -41.66971142 254.24135215 -24.04040527 276.51826477 C-4.63813568 300.36718569 22.06322491 315.95186315 52.74572754 319.55342102 C83.59744684 322.26295325 111.96025196 312.95253331 136.03479004 293.64717102 C137.79562851 292.15990915 139.54680516 290.66107609 141.28479004 289.14717102 C141.89838379 288.6186554 142.51197754 288.09013977 143.14416504 287.54560852 C157.44267143 274.26842401 167.10674875 255.72143277 172.28479004 237.14717102 C172.60447754 236.06049133 172.92416504 234.97381165 173.25354004 233.85420227 C177.49700369 216.78211933 177.38635755 196.00535839 172.28479004 179.14717102 C172.0807959 178.4718634 171.87680176 177.79655579 171.66662598 177.1007843 C162.57494892 147.71494892 143.28176845 123.93051082 116.28479004 109.14717102 C71.67801666 85.69986572 18.25943005 95.66766432 -16.71520996 131.14717102 Z M210.90979004 119.77217102 C208.70571111 124.34987341 208.48762613 128.15269513 209.28479004 133.14717102 C211.61447935 137.9857565 214.44620456 140.81748171 219.28479004 143.14717102 C224.27926593 143.94433493 228.08208765 143.72624995 232.65979004 141.52217102 C236.24386717 138.27943457 238.88014245 135.68241206 239.66760254 130.74873352 C239.92362923 125.06494108 239.22105935 121.49778447 235.28479004 117.14717102 C230.93417659 113.2109017 227.36701998 112.50833183 221.68322754 112.76435852 C216.749549 113.55181861 214.15252649 116.18809389 210.90979004 119.77217102 Z " fill="#000000" transform="translate(191.7152099609375,63.85282897949219)"/>
<path d="M0 0 C1.30365551 1.08998583 2.59459989 2.19528814 3.875 3.3125 C4.84308594 4.08464844 5.81117188 4.85679687 6.80859375 5.65234375 C16.40913081 13.66632589 22.45343272 24.82246134 26.875 36.3125 C27.30941406 37.42496094 27.74382812 38.53742188 28.19140625 39.68359375 C34.70949162 59.69207183 32.11980722 82.03972185 23.0625 100.6875 C19.95415425 106.77552518 16.35705254 112.13679648 11.875 117.3125 C11.27816406 118.10527344 10.68132812 118.89804687 10.06640625 119.71484375 C1.86635931 129.43504199 -9.38512742 135.85794315 -21.125 140.3125 C-22.23617187 140.745625 -23.34734375 141.17875 -24.4921875 141.625 C-44.4933664 148.15599719 -66.8577544 145.55572972 -85.5 136.5 C-91.58504784 133.38997734 -96.96623805 129.81377268 -102.125 125.3125 C-103.09308594 124.54035156 -104.06117188 123.76820313 -105.05859375 122.97265625 C-114.65913081 114.95867411 -120.70343272 103.80253866 -125.125 92.3125 C-125.77662109 90.64380859 -125.77662109 90.64380859 -126.44140625 88.94140625 C-132.95927113 68.93360501 -130.37054734 46.58451668 -121.3125 27.9375 C-118.20247734 21.85245216 -114.62627268 16.47126195 -110.125 11.3125 C-108.96677734 9.86037109 -108.96677734 9.86037109 -107.78515625 8.37890625 C-99.77117411 -1.22163081 -88.61503866 -7.26593272 -77.125 -11.6875 C-76.01253906 -12.12191406 -74.90007812 -12.55632812 -73.75390625 -13.00390625 C-49.0695884 -21.04522205 -20.46495623 -15.7264261 0 0 Z " fill="#000000" transform="translate(305.125,207.6875)"/>
</svg>
