<?xml version="1.0" encoding="UTF-8"?>
<svg version="1.1" xmlns="http://www.w3.org/2000/svg" width="512" height="512">
<path d="M0 0 C1.79817622 -0.00679667 1.79817622 -0.00679667 3.63267922 -0.01373065 C6.94776186 -0.02417953 10.26262705 -0.02570416 13.57771063 -0.02334189 C17.15794258 -0.02293288 20.73814246 -0.03398098 24.31835938 -0.04345703 C31.32824457 -0.06004987 38.33809612 -0.06556581 45.3479993 -0.06668179 C51.04806732 -0.06763311 56.74812427 -0.07174763 62.44818878 -0.07808304 C78.62034842 -0.09569108 94.79248155 -0.10492264 110.96465084 -0.10342209 C111.83597976 -0.10334218 112.70730868 -0.10326227 113.6050415 -0.10317993 C114.47743832 -0.10309817 115.34983514 -0.10301641 116.24866822 -0.10293217 C130.38313116 -0.10211948 144.51748747 -0.12125393 158.65191957 -0.14945666 C173.17625128 -0.17820794 187.70053102 -0.19199571 202.2248919 -0.19026911 C210.37470265 -0.18960597 218.52440164 -0.19506509 226.67418671 -0.21662521 C233.61379329 -0.23486661 240.55323745 -0.23916018 247.49285766 -0.22560637 C251.03049827 -0.21909144 254.56782754 -0.21890551 258.10543823 -0.23631287 C261.94836466 -0.25502732 265.79084029 -0.24245043 269.63378906 -0.22705078 C270.74091177 -0.23733791 271.84803447 -0.24762503 272.98870635 -0.25822389 C284.28591997 -0.15847649 292.71372864 2.96556687 300.84039307 10.83383179 C308.78111442 19.49770115 311.38838143 27.28037632 311.31137085 38.84089661 C311.31393412 40.25869363 311.31393412 40.25869363 311.31654918 41.70513302 C311.31983485 44.86196145 311.30885552 48.01857578 311.2979126 51.17538452 C311.29734828 53.44239802 311.29766544 55.70941188 311.29879761 57.97642517 C311.29937133 64.12460697 311.28761367 70.2727107 311.27364969 76.42087436 C311.26114575 82.84840419 311.2599721 89.27593583 311.25759888 95.70347595 C311.2520893 106.4897014 311.23959753 117.27589273 311.22174072 128.06210327 C311.20337077 139.16984922 311.18921973 150.27758738 311.1807251 161.38534546 C311.18019965 162.07051538 311.1796742 162.7556853 311.17913283 163.46161794 C311.17652268 166.89905984 311.17399528 170.33650179 311.17150903 173.77394378 C311.15078993 202.27179073 311.11542702 230.7696066 311.07086182 259.26742554 C307.16111911 256.06721019 303.89601081 253.08028028 300.75836182 249.07992554 C297.7940448 245.37080525 294.77402208 241.77245431 291.57086182 238.26742554 C287.65194929 233.96750763 283.97915312 229.50823007 280.32086182 224.98617554 C278.13584612 222.34594824 275.87914791 219.80012833 273.57086182 217.26742554 C269.65194929 212.96750763 265.97915312 208.50823007 262.32086182 203.98617554 C260.13584612 201.34594824 257.87914791 198.80012833 255.57086182 196.26742554 C251.65194929 191.96750763 247.97915312 187.50823007 244.32086182 182.98617554 C242.13584612 180.34594824 239.87914791 177.80012833 237.57086182 175.26742554 C234.45627513 171.85003182 231.47899562 168.36220204 228.57086182 164.76742554 C224.89450354 160.22490955 221.07224445 155.85798675 217.12164307 151.55258179 C215.34585045 149.57384144 213.70995709 147.54556221 212.07086182 145.45492554 C208.06168536 140.71782598 202.1941221 137.35771829 196.07086182 136.26742554 C185.00509914 135.47329433 175.87156526 136.10033214 167.00836182 143.32992554 C163.12257093 146.99034056 159.80880056 151.07259717 156.48883057 155.24398804 C153.90779106 158.47132984 151.25160178 161.62307798 148.57086182 164.76742554 C144.45135178 169.61348933 140.40483549 174.51275539 136.39117432 179.44711304 C133.77657392 182.625129 131.11444758 185.75977739 128.44586182 188.89242554 C124.17542379 193.90909609 120.04853335 199.01364095 116.07086182 204.26742554 C111.40623364 203.40356207 109.06186764 200.55108626 105.90679932 197.22055054 C104.6896302 195.97027906 103.47217278 194.7202882 102.25445557 193.47055054 C100.35427063 191.5024495 98.45836945 189.53051545 96.56842041 187.55258179 C87.19919294 177.77770684 78.81074072 169.31677001 64.50836182 168.95492554 C45.49240932 169.23219337 34.21947835 184.98002196 21.78404045 197.47908211 C19.24400388 200.03199487 16.70075745 202.58167146 14.1566925 205.13056946 C8.77108351 210.5275347 3.38945285 215.92845612 -1.99163818 221.32992554 C-8.26049709 227.62237349 -14.53096947 233.91319617 -20.80563164 240.19985771 C-23.31662061 242.71734925 -25.82459297 245.23782026 -28.33247375 247.75840759 C-29.85681777 249.28638055 -31.38130034 250.81421529 -32.90594482 252.34188843 C-33.95699654 253.40068962 -33.95699654 253.40068962 -35.02928162 254.48088074 C-35.66409454 255.11576416 -36.29890747 255.75064758 -36.95295715 256.4047699 C-37.50687165 256.96090501 -38.06078615 257.51704012 -38.63148594 258.09002781 C-39.92913818 259.26742554 -39.92913818 259.26742554 -40.92913818 259.26742554 C-41.02047947 230.15405793 -41.09122373 201.04070436 -41.1333995 171.92722199 C-41.13840205 168.4865051 -41.14357937 165.04578849 -41.14886475 161.60507202 C-41.14991399 160.92011604 -41.15096323 160.23516006 -41.15204427 159.52944783 C-41.16942759 148.45320842 -41.20095378 137.37705245 -41.23774937 126.30086245 C-41.27521663 114.92723584 -41.29708702 103.55367091 -41.30549216 92.17997867 C-41.3107014 85.79507539 -41.32292299 79.41036107 -41.35205841 73.02551842 C-41.37927803 67.01158948 -41.38756982 60.99792672 -41.38156891 54.98394203 C-41.3826662 52.7809568 -41.39058075 50.57796234 -41.40596008 48.37503052 C-41.50535059 33.39941834 -41.30651037 21.80107432 -30.36273193 10.49789429 C-20.83280475 1.76340244 -12.62581044 -0.03503863 0 0 Z M25.22320557 70.67367554 C15.37711372 82.53902035 11.7308291 96.02476974 12.84771729 111.24105835 C14.41767286 125.49776649 22.42590723 137.0875431 33.07086182 146.26742554 C43.84518996 154.79528445 57.24698225 157.06332637 70.57086182 155.57992554 C84.1100627 153.50010853 95.63454542 147.40453661 104.44195557 136.66586304 C113.54978361 123.25529609 117.27977951 109.78021677 114.41851807 93.57211304 C110.90580658 79.85293944 103.26487201 68.63548027 91.25836182 61.01742554 C68.87194473 48.35823437 43.02687312 51.51381288 25.22320557 70.67367554 Z " fill="#000000" transform="translate(88.92913818359375,47.732574462890625)"/>
<path d="M0 0 C3.81628832 1.54572776 5.97025743 3.88771245 8.6875 6.9375 C9.12247803 7.42404053 9.55745605 7.91058105 10.00561523 8.41186523 C13.7274459 12.60896686 17.26232454 16.95156203 20.78515625 21.31640625 C22.95632827 23.94708557 25.20241357 26.47942424 27.5 29 C31.41891252 33.29991791 35.09170869 37.75919547 38.75 42.28125 C40.93501569 44.92147729 43.19171391 47.4672972 45.5 50 C49.41891252 54.29991791 53.09170869 58.75919547 56.75 63.28125 C59.64475711 66.77908151 62.69589539 70.11785404 65.75390625 73.47265625 C68.06187598 76.06962393 70.25555863 78.73404013 72.4375 81.4375 C75.51336588 85.24087503 78.68753166 88.90082652 82 92.5 C86.11378909 96.9698512 89.97087297 101.59044893 93.78515625 106.31640625 C95.95632827 108.94708557 98.20241357 111.47942424 100.5 114 C104.41895457 118.29996405 108.10940245 122.73906695 111.71484375 127.3046875 C113.93603897 130.04486092 113.93603897 130.04486092 116.56640625 132.3203125 C121.23805879 136.6337319 123.48425493 139.87352011 123.81835938 146.20239258 C123.7869794 158.17254445 120.88183851 167.04384003 112.43359375 175.76953125 C102.90366657 184.5040231 94.69667225 186.30246417 82.07086182 186.26742554 C80.87207767 186.27195665 79.67329353 186.27648776 78.43818259 186.28115618 C75.12309995 186.29160507 71.80823477 186.2931297 68.49315119 186.29076743 C64.91291924 186.29035841 61.33271935 186.30140652 57.75250244 186.31088257 C50.74261725 186.32747541 43.7327657 186.33299134 36.72286251 186.33410732 C31.0227945 186.33505865 25.32273755 186.33917317 19.62267303 186.34550858 C3.4505134 186.36311661 -12.72161973 186.37234818 -28.89378902 186.37084763 C-29.76511794 186.37076772 -30.63644686 186.3706878 -31.53417969 186.37060547 C-32.40657651 186.37052371 -33.27897332 186.37044195 -34.17780641 186.37035771 C-48.31226934 186.36954502 -62.44662566 186.38867946 -76.58105776 186.4168822 C-91.10538946 186.44563348 -105.62966921 186.45942125 -120.15403008 186.45769465 C-128.30384084 186.4570315 -136.45353982 186.46249063 -144.60332489 186.48405075 C-151.54293147 186.50229215 -158.48237563 186.50658572 -165.42199585 186.4930319 C-168.95963646 186.48651697 -172.49696573 186.48633105 -176.03457642 186.5037384 C-179.87750284 186.52245285 -183.71997847 186.50987597 -187.56292725 186.49447632 C-189.2236113 186.50990701 -189.2236113 186.50990701 -190.91784453 186.52564943 C-202.21505816 186.42590203 -210.64286683 183.30185867 -218.76953125 175.43359375 C-226.88685492 166.5770392 -230.24346761 156.77491954 -230.60617352 144.83799553 C-229.82857916 131.15919777 -217.67340713 121.92860802 -208.36596131 113.03909922 C-205.45865952 110.24181721 -202.60951716 107.38637601 -199.75260925 104.53781128 C-194.95871455 99.77418602 -190.12772024 95.0512259 -185.26831055 90.35449219 C-179.02970458 84.32440009 -172.85543494 78.23249773 -166.69925404 72.11841011 C-161.39546998 66.85142499 -156.06578718 61.61088147 -150.73051238 56.37582159 C-149.01946507 54.6952475 -147.31154624 53.01153792 -145.60383034 51.3275795 C-142.92557089 48.6903075 -140.23175667 46.06996841 -137.52488708 43.46208 C-136.53341205 42.50255193 -135.5468832 41.5378831 -134.56569481 40.56783867 C-133.22806992 39.24738116 -131.87029844 37.94742441 -130.5115509 36.64871216 C-129.75660245 35.91550814 -129.001654 35.18230412 -128.22382832 34.42688179 C-126 33 -126 33 -123.38355541 33.13303947 C-119.96608608 34.37606114 -118.13212271 36.45121317 -115.625 39.0625 C-115.14240723 39.56056152 -114.65981445 40.05862305 -114.16259766 40.57177734 C-110.91141062 43.95349046 -107.7975904 47.43870991 -104.7734375 51.0234375 C-101.92743334 54.1954157 -98.76831376 57.04739728 -95.625 59.921875 C-94 62 -94 62 -94.06640625 64.046875 C-95.10957449 66.22923533 -96.29186434 67.72963401 -97.9375 69.5 C-101.85470863 73.73482014 -103.48265009 76.96580358 -103.31640625 82.90625 C-102.61218585 87.56627635 -100.33025883 90.94979566 -96.625 93.875 C-92.24704242 95.75126753 -89.15759337 96.20308656 -84.4375 95.375 C-74.34068378 91.33627351 -66.12141495 78.25260513 -59.40625 69.94140625 C-56.69414351 66.62612023 -53.9189422 63.37130323 -51.125 60.125 C-47.2116333 55.57708359 -43.31001021 51.02028255 -39.4375 46.4375 C-38.76182983 45.63807983 -38.76182983 45.63807983 -38.07250977 44.82250977 C-36.71463792 43.21531736 -35.35722957 41.60773481 -34 40 C-32.18809175 37.853666 -30.37567663 35.70776263 -28.5625 33.5625 C-27.88779663 32.76404663 -27.88779663 32.76404663 -27.19946289 31.94946289 C-23.77861717 27.90675564 -20.32907771 23.88931694 -16.875 19.875 C-12.41130086 14.68667906 -8.04292157 9.43409338 -3.7421875 4.109375 C-2 2 -2 2 0 0 Z " fill="#000000" transform="translate(277,214)"/>
<path d="M0 0 C1.44205003 0.30323702 2.88310755 0.61119646 4.32373047 0.92114258 C5.52761917 1.17762321 5.52761917 1.17762321 6.75582886 1.43928528 C14.26603007 3.3157377 21.33190101 8.93028351 26 15 C29.71448334 21.24226162 32.11947424 26.7509914 32.13422108 34.05297184 C32.13867892 35.07827065 32.14313676 36.10356945 32.14772969 37.15993792 C32.14745315 38.84711409 32.14745315 38.84711409 32.14717102 40.56837463 C32.15084771 41.7645955 32.1545244 42.96081637 32.1583125 44.19328636 C32.16743166 47.51508874 32.17204735 50.83684175 32.17470181 54.15865195 C32.17860849 57.74097371 32.18818664 61.32328122 32.19691467 64.90559387 C32.21666972 73.55811158 32.22674448 82.21063043 32.23564246 90.86316505 C32.24002729 94.93967589 32.24539363 99.01618542 32.25063133 103.09269524 C32.26764332 116.64749793 32.28213664 130.20229982 32.28938007 143.75711155 C32.29128991 147.27402815 32.29321025 150.79094475 32.29516602 154.30786133 C32.29564976 155.18195465 32.2961335 156.05604797 32.2966319 156.95662897 C32.30492901 171.1106769 32.33026065 185.26464023 32.36274669 199.41865123 C32.39584099 213.95644221 32.41383101 228.49419024 32.41702431 243.03201908 C32.41918731 251.19194245 32.42790502 259.35174249 32.45348549 267.5116291 C32.47522498 274.46227921 32.48322702 281.41277601 32.47351871 288.36345626 C32.46898324 291.90715797 32.4708157 295.45054359 32.49028015 298.99420166 C32.51124178 302.84384431 32.50089667 306.693055 32.48774719 310.54273987 C32.50420106 312.20649346 32.50420106 312.20649346 32.52098733 313.90385824 C32.42802982 325.20875306 29.30732297 333.63722307 21.43359375 341.76953125 C11.90129596 350.50619584 3.69293462 352.30245106 -8.93586731 352.26742554 C-10.13535702 352.27195665 -11.33484673 352.27648776 -12.57068461 352.28115618 C-15.88769782 352.29160506 -19.20449371 352.29312971 -22.52150786 352.29076743 C-26.10376569 352.29035842 -29.68599146 352.30140642 -33.26823425 352.31088257 C-40.28179445 352.32747499 -47.29532102 352.33299131 -54.3088992 352.33410732 C-60.01135949 352.33505859 -65.7138087 352.33917282 -71.41626549 352.34550858 C-87.59349079 352.36311587 -103.77068958 352.3723482 -119.94792453 352.37084763 C-120.81951617 352.37076772 -121.69110782 352.3706878 -122.58911133 352.37060547 C-123.46177046 352.37052371 -124.33442958 352.37044195 -125.23353293 352.37035771 C-139.37513791 352.36954486 -153.51663638 352.38868354 -167.65821055 352.4168822 C-182.18818749 352.44562613 -196.7181125 352.45942168 -211.24811858 352.45769465 C-219.40180981 352.45703129 -227.55538936 352.46249994 -235.70905495 352.48405075 C-242.65125195 352.50228238 -249.59328662 352.50659364 -256.53549723 352.4930319 C-260.07503913 352.48651229 -263.6142698 352.48634814 -267.15378189 352.5037384 C-270.99705837 352.52242634 -274.83988301 352.5098883 -278.68318176 352.49447632 C-279.79321731 352.50476344 -280.90325286 352.51505057 -282.04692584 352.52564943 C-292.38491211 352.43419662 -301.45989308 349.36697858 -309 342.0625 C-315.3733732 335.31422249 -318.54292034 329.12329674 -320 320 C-318.72116188 319.99668985 -317.44232376 319.99337971 -316.12473297 319.98996925 C-285.71288196 319.91081441 -255.30107913 319.821543 -224.88929543 319.71994839 C-221.1395761 319.70743072 -217.3898565 319.69499776 -213.64013672 319.68261719 C-212.52046571 319.6789182 -212.52046571 319.6789182 -211.37817508 319.67514448 C-199.31922454 319.63550766 -187.26026473 319.60272033 -175.20128733 319.57250018 C-162.81172644 319.54129776 -150.42220459 319.50265138 -138.03268766 319.45720994 C-130.39836385 319.42944044 -122.76406832 319.40735792 -115.12970781 319.39273749 C-109.25859638 319.38086913 -103.38755199 319.35860367 -97.51648521 319.33261681 C-95.12050587 319.32360067 -92.72451141 319.31786487 -90.32851601 319.31578636 C-64.28629826 319.2891657 -41.12299788 317.47513033 -21 299 C-5.03479035 282.72123468 -0.86464696 262.23001166 -0.84178162 240.14826965 C-0.83437465 238.59671418 -0.83437465 238.59671418 -0.82681805 237.01381415 C-0.81157111 233.57927928 -0.80311748 230.1447629 -0.79467773 226.71020508 C-0.78508912 224.23570597 -0.77507847 221.76120848 -0.76467896 219.28671265 C-0.74330129 213.97541148 -0.72483682 208.66411264 -0.70907402 203.35279274 C-0.68627907 195.67369068 -0.65815009 187.99461528 -0.62875474 180.31553598 C-0.58119616 167.85416798 -0.53790053 155.39278901 -0.49731445 142.93139648 C-0.45789959 130.83242948 -0.41645919 118.73347219 -0.37231445 106.63452148 C-0.36822804 105.51425259 -0.36822804 105.51425259 -0.36405908 104.37135199 C-0.35037862 100.62432697 -0.33665854 96.87730209 -0.32291877 93.13027728 C-0.20913852 62.08687161 -0.10236026 31.04344552 0 0 Z " fill="#000000" transform="translate(432,112)"/>
<path d="M0 0 C4.9964921 3.00165909 8.43544229 6.49634672 10.82421875 11.87109375 C12.56712685 19.27845318 11.78888371 24.13314455 8.20703125 30.78515625 C5.00404707 35.24481365 0.67928279 37.35690574 -4.42578125 39.05859375 C-10.29763152 39.45668529 -15.27023485 39.10505298 -20.42578125 36.05859375 C-24.55945916 32.27243744 -28.06398276 28.00346517 -28.76171875 22.32421875 C-28.84675209 15.75964493 -28.63306683 10.34216169 -24.42578125 5.05859375 C-17.71889685 -1.03857389 -8.72446381 -3.38582251 0 0 Z " fill="#000000" transform="translate(161.42578125,133.94140625)"/>
</svg>
