<?xml version="1.0" standalone="no"?>
<!DOCTYPE svg PUBLIC "-//W3C//DTD SVG 20010904//EN"
 "http://www.w3.org/TR/2001/REC-SVG-20010904/DTD/svg10.dtd">
<svg version="1.0" xmlns="http://www.w3.org/2000/svg"
 width="512.000000pt" height="512.000000pt" viewBox="0 0 512.000000 512.000000"
 preserveAspectRatio="xMidYMid meet">

<g transform="translate(0.000000,512.000000) scale(0.100000,-0.100000)"
fill="#000000" stroke="none">
<path d="M2443 4945 c-132 -36 -249 -129 -307 -247 -98 -194 -60 -359 86 -375
94 -11 163 50 178 158 15 104 66 154 160 154 97 0 155 -58 155 -155 0 -94 -50
-145 -155 -160 -67 -9 -100 -28 -134 -74 -18 -24 -22 -46 -26 -164 l-5 -136
-320 -129 c-176 -70 -439 -168 -584 -218 -350 -119 -469 -181 -656 -339 -126
-108 -259 -279 -338 -435 -51 -103 -337 -869 -337 -905 0 -46 24 -95 61 -123
19 -14 229 -122 466 -241 l432 -216 3 -539 c3 -527 3 -540 24 -567 11 -15 33
-37 48 -48 27 -21 30 -21 1366 -21 1336 0 1339 0 1366 21 15 11 37 33 48 48
21 27 21 40 24 567 l3 539 447 224 c246 123 457 234 469 247 27 29 43 71 43
110 0 42 -293 817 -351 928 -137 261 -359 480 -623 613 -54 27 -216 89 -360
138 -143 49 -405 147 -581 217 l-320 129 -3 40 c-3 39 -2 39 62 72 190 98 295
330 241 535 -67 259 -333 419 -582 352z m371 -1379 l259 -103 -44 -33 c-60
-44 -190 -106 -269 -127 -47 -13 -103 -18 -200 -18 -97 0 -153 5 -200 18 -79
21 -209 83 -269 127 l-45 33 255 102 c140 56 254 103 254 104 0 0 117 -46 259
-103z"/>
</g>
</svg>
