<?xml version="1.0" encoding="UTF-8"?>
<svg version="1.1" xmlns="http://www.w3.org/2000/svg" width="512" height="512">
<path d="M0 0 C0.91808441 0.00424484 1.83616882 0.00848969 2.78207397 0.01286316 C5.67534428 0.02947378 8.5678826 0.067091 11.4609375 0.10546875 C13.43879193 0.12053843 15.41665742 0.1342228 17.39453125 0.14648438 C22.20860952 0.17931922 27.02215001 0.23097637 31.8359375 0.29296875 C31.84402435 1.26634689 31.85211121 2.23972504 31.86044312 3.24259949 C31.93830229 12.4656828 32.02613789 21.68862578 32.12346458 30.91152477 C32.17317469 35.65184352 32.21950458 40.39214267 32.2578125 45.13256836 C32.29498771 49.71682244 32.34142984 54.3009016 32.39400101 58.88500404 C32.41237533 60.62423919 32.42754411 62.36351158 32.43928146 64.10280418 C32.57351718 83.32631675 33.74400073 99.7988054 47.71484375 114.234375 C60.42408944 126.12201288 75.78002029 127.44481618 92.40136719 127.43823242 C94.24470139 127.44327034 94.24470139 127.44327034 96.12527466 127.44841003 C99.47263432 127.45624286 102.81993192 127.4595853 106.16729641 127.46022582 C108.26584318 127.46094023 110.36438359 127.46308192 112.46292877 127.46572304 C119.80471708 127.4749546 127.14648733 127.47906073 134.48828125 127.47827148 C141.29844191 127.47767148 148.10852316 127.48821368 154.91866374 127.50401515 C160.7933135 127.51715326 166.66793751 127.52245276 172.54260182 127.52181607 C176.03891504 127.5215629 179.5351576 127.52431316 183.03145599 127.53499413 C186.93864453 127.54660619 190.8457268 127.54189015 194.75292969 127.53588867 C195.88894623 127.54150818 197.02496277 127.54712769 198.19540405 127.55291748 C215.37935795 127.48629441 229.21065841 124.57618654 241.77734375 112.4140625 C252.48997939 100.96102871 254.91958937 87.057411 255.04125977 71.92749023 C255.05115936 71.14589035 255.06105896 70.36429047 255.07125854 69.55900574 C255.10250058 67.01072068 255.12748113 64.46241707 255.15234375 61.9140625 C255.17294562 60.13330132 255.19394287 58.35254468 255.21531677 56.5717926 C255.2702039 51.91124165 255.31975864 47.25064903 255.36816406 42.59002686 C255.41862449 37.82365259 255.47418175 33.05733794 255.52929688 28.29101562 C255.63646968 18.95838441 255.7380034 9.62570117 255.8359375 0.29296875 C260.08569709 0.17507102 264.33502655 0.10515554 268.5859375 0.04296875 C269.77316406 0.00945313 270.96039063 -0.0240625 272.18359375 -0.05859375 C286.8104609 -0.21845022 297.85907016 4.46288576 308.3984375 14.54296875 C312.33722615 18.68234386 315.88622983 23.14513334 319.46386719 27.59570312 C322.12647329 30.8893753 324.82811316 34.15106641 327.5234375 37.41796875 C328.73187796 38.88402629 329.94020984 40.35017333 331.1484375 41.81640625 C331.756875 42.5547168 332.3653125 43.29302734 332.9921875 44.05371094 C334.81698264 46.26994784 336.63932736 48.48817604 338.4609375 50.70703125 C344.28163826 57.79334338 350.13102584 64.84966687 356.07495117 71.83300781 C359.37971184 75.72586747 362.57162597 79.69703452 365.7421875 83.69921875 C368.68317473 87.34253128 371.72287781 90.89893161 374.75854492 94.46337891 C378.27962137 98.60820291 381.696785 102.82525884 385.0625 107.09765625 C386.65377441 109.06747172 388.31358992 110.92689144 390.0234375 112.79296875 C398.08888623 122.11108935 400.13852654 132.65790754 400.10336304 144.56999207 C400.10789415 145.69865025 400.11242526 146.82730844 400.11709368 147.99016839 C400.12974405 151.76847105 400.12811686 155.54662969 400.12646484 159.32495117 C400.13136383 162.03554832 400.13919877 164.7461354 400.14682007 167.45672607 C400.16340949 174.05385763 400.16892871 180.65095344 400.17004482 187.24810412 C400.1709964 192.6134956 400.17511218 197.97887532 400.18144608 203.34426308 C400.19905391 218.57061942 400.20828582 233.79694761 400.20678513 249.0233142 C400.20670522 249.84360147 400.2066253 250.66388874 400.20654297 251.5090332 C400.20646121 252.33032726 400.20637945 253.15162132 400.20629521 253.99780307 C400.20548273 267.30064468 400.22461182 280.60337294 400.2528197 293.90618178 C400.28158363 307.57961944 400.29535803 321.2530019 400.29363215 334.92647058 C400.29296939 342.59732718 400.29841116 350.268065 400.31998825 357.93889427 C400.33824645 364.47150779 400.34250961 371.00394871 400.3289694 377.53657677 C400.32246245 380.865821 400.32443464 384.19446588 400.3396759 387.52372169 C400.35516813 391.14311595 400.34579261 394.76165077 400.33041382 398.38102722 C400.34070094 399.41909096 400.35098807 400.45715471 400.36158693 401.52667493 C400.23250613 415.34300754 394.79989758 426.04452004 385.5234375 436.04296875 C374.66826231 446.3166167 362.7371312 448.79625557 348.2109375 448.48046875 C347.01597656 448.46693359 345.82101562 448.45339844 344.58984375 448.43945312 C341.6713895 448.40443167 338.75391402 448.35531868 335.8359375 448.29296875 C335.83097228 447.07404796 335.83097228 447.07404796 335.82590675 445.83050251 C335.74451811 426.01437443 335.65237428 406.19832145 335.54841042 386.38229847 C335.49838989 376.79923393 335.45194616 367.21617748 335.4140625 357.63305664 C335.38101561 349.27578951 335.34111522 340.91858729 335.29314744 332.56139201 C335.26800808 328.14053354 335.24619045 323.71971743 335.23259354 319.29880714 C335.21965821 315.1283288 335.19748324 310.95799666 335.16855431 306.78759956 C335.15956733 305.26598452 335.15380938 303.74434599 335.15172386 302.22270584 C335.12160035 283.56396605 333.33193623 268.17137077 319.95703125 254.3515625 C308.00282972 243.17015784 293.93886453 241.13004814 278.21696472 241.15925598 C276.84583329 241.15585765 276.84583329 241.15585765 275.44700223 241.15239066 C272.41281577 241.14610817 269.37867463 241.14687629 266.34448242 241.14770508 C264.15723107 241.14471002 261.96998024 241.14130669 259.7827301 241.13752747 C253.86114781 241.12871919 247.93957999 241.12635071 242.01799178 241.12571168 C238.31352511 241.12499945 234.60906209 241.12286186 230.90459633 241.12021446 C217.29973021 241.1104951 203.69487543 241.10694827 190.09000609 241.1077899 C180.05014364 241.10817094 170.01031229 241.10037421 159.97045898 241.0871582 C148.28555737 241.07182982 136.60067874 241.06340097 124.91576654 241.06412143 C118.74004908 241.06437576 112.5643715 241.06155993 106.38866234 241.05094337 C100.57819222 241.04122665 94.76779982 241.04120767 88.95732689 241.04846001 C86.83258958 241.04950137 84.70784733 241.0471698 82.58311844 241.04109955 C62.49653154 240.98745826 45.10435967 241.451699 29.89453125 256.171875 C17.16703046 269.77903027 16.69893554 286.36744839 16.63061523 304.00219727 C16.62102142 305.57986194 16.61101049 307.15752412 16.60061646 308.73518372 C16.57372411 312.99482946 16.55263034 317.25448611 16.53261447 321.51416898 C16.51065754 325.9744673 16.48331661 330.43473263 16.45655823 334.89500427 C16.40676199 343.33076985 16.361775 351.76655387 16.31853586 360.20235533 C16.26905138 369.81062552 16.21417503 379.41886258 16.15885627 389.02710068 C16.04523701 408.78235913 15.93835476 428.53764926 15.8359375 448.29296875 C11.75285514 448.41097691 7.67022174 448.4808166 3.5859375 448.54296875 C2.44640625 448.57648438 1.306875 448.61 0.1328125 448.64453125 C-14.47458791 448.81052444 -25.29859583 443.82939187 -35.9140625 433.98046875 C-46.67129399 422.61433736 -48.61903099 410.17068738 -48.55174255 395.0486145 C-48.55592086 393.51410657 -48.56140109 391.97960173 -48.56806237 390.44510257 C-48.5824706 386.24941581 -48.57828678 382.05392626 -48.57089555 377.85822892 C-48.5661547 373.32505356 -48.57868185 368.7919203 -48.58891296 364.25875854 C-48.6060884 355.38602121 -48.60694357 346.51335474 -48.60170006 337.64060511 C-48.59765475 330.42698012 -48.59910621 323.21337604 -48.60444832 315.99975204 C-48.60519674 314.97213724 -48.60594516 313.94452243 -48.60671626 312.88576778 C-48.60824778 310.79800789 -48.60978613 308.71024801 -48.61133123 306.62248813 C-48.62505176 287.05419295 -48.61962175 267.48593779 -48.60814602 247.91764353 C-48.59821439 230.02700104 -48.61115391 212.13646198 -48.63508021 194.24583544 C-48.65947977 175.86240841 -48.66907695 157.47902955 -48.66242748 139.09558666 C-48.65893714 128.78001388 -48.66115516 118.46452063 -48.67867851 108.14896011 C-48.69341119 99.36749101 -48.69402198 90.58615745 -48.6766076 81.80469097 C-48.66810399 77.3272108 -48.6659324 72.84997265 -48.68125916 68.37250519 C-48.69513532 64.26788007 -48.69030577 60.16370366 -48.67101992 56.05910431 C-48.66726855 54.58006216 -48.67015686 53.10098382 -48.68063157 51.62197401 C-48.7851698 35.72152265 -44.68841824 24.22325902 -33.8515625 12.54296875 C-24.26955654 3.47428454 -13.00186125 -0.23217879 0 0 Z " fill="#000000" transform="translate(80.1640625,31.70703125)"/>
<path d="M0 0 C52.8 0 105.6 0 160 0 C160.0825 14.06625 160.165 28.1325 160.25 42.625 C160.28641602 47.06018066 160.32283203 51.49536133 160.36035156 56.06494141 C160.37841797 61.49682617 160.37841797 61.49682617 160.3817749 64.04281616 C160.38790191 65.81426007 160.40193866 67.58568769 160.42230225 69.35702515 C160.45166414 72.04641528 160.45562145 74.73478954 160.45410156 77.42431641 C160.468494 78.20840693 160.48288643 78.99249744 160.497715 79.80034828 C160.45865324 84.97810984 159.49917054 87.95297768 156 92 C150.42988301 97.41410632 143.8635497 96.56383099 136.5625 96.51757812 C135.19204974 96.523003 133.82160532 96.53012771 132.45117188 96.53881836 C128.74035264 96.55701167 125.02997959 96.55000102 121.31915283 96.53730202 C117.43020451 96.52715349 113.54129362 96.53657283 109.65234375 96.54284668 C103.12232628 96.55011772 96.59248995 96.54054976 90.0625 96.52148438 C82.51994815 96.49971654 74.97782884 96.5067683 67.43528748 96.52879 C60.95186163 96.54695959 54.46856577 96.54949474 47.98512268 96.53903532 C44.11614902 96.53280891 40.24737847 96.53194111 36.37841797 96.54518127 C32.74043598 96.55676204 29.10301 96.54867426 25.46508789 96.52560425 C23.49821735 96.51781847 21.53129961 96.52965409 19.56445312 96.54211426 C8.56459929 96.43675167 8.56459929 96.43675167 4 92 C-0.17315031 87.17347548 -0.56586455 83.51309235 -0.45410156 77.42431641 C-0.4545837 76.57114523 -0.45506584 75.71797405 -0.45556259 74.8389492 C-0.45259042 72.09272084 -0.42219384 69.34759512 -0.390625 66.6015625 C-0.38473966 64.89998904 -0.38066154 63.19840833 -0.37841797 61.49682617 C-0.35749508 55.2061066 -0.30164987 48.91554233 -0.25 42.625 C-0.1675 28.55875 -0.085 14.4925 0 0 Z " fill="#000000" transform="translate(144,32)"/>
<path d="M0 0 C84.48 0 168.96 0 256 0 C256 18.48 256 36.96 256 56 C171.52 56 87.04 56 0 56 C0 37.52 0 19.04 0 0 Z " fill="#000000" transform="translate(128,424)"/>
<path d="M0 0 C84.48 0 168.96 0 256 0 C256 10.89 256 21.78 256 33 C171.52 33 87.04 33 0 33 C0 22.11 0 11.22 0 0 Z " fill="#000000" transform="translate(128,360)"/>
<path d="M0 0 C0.96461151 -0.00623996 1.92922302 -0.01247993 2.92306519 -0.01890898 C6.1520845 -0.03485099 9.38035022 -0.02222963 12.609375 -0.00964355 C14.92562297 -0.01506411 17.24186749 -0.0221864 19.55810547 -0.03088379 C25.84729455 -0.04912772 32.13622133 -0.042045 38.42541504 -0.02936745 C45.00497142 -0.01924544 51.58450524 -0.02863091 58.1640625 -0.03491211 C69.92148203 -0.04345692 81.67879115 -0.03022092 93.43619156 -0.00987476 C104.09293685 0.00799589 114.74950785 0.00489166 125.40625 -0.0135498 C137.78656125 -0.03496393 150.16676138 -0.04291967 162.54708862 -0.03110075 C169.0988178 -0.02486231 175.65042695 -0.02403996 182.20214844 -0.0372467 C188.36147014 -0.04879504 194.52046245 -0.04079758 200.67974854 -0.01766968 C202.94125827 -0.01237722 205.20279569 -0.01390548 207.46429443 -0.02272034 C210.54948815 -0.03363775 213.63362385 -0.01995733 216.71875 0 C218.06379105 -0.01338433 218.06379105 -0.01338433 219.43600464 -0.02703905 C224.88480651 0.04141153 228.12430264 0.75949376 232.359375 4.50793457 C236.359375 10.50793457 236.359375 10.50793457 236.359375 25.50793457 C151.879375 25.50793457 67.399375 25.50793457 -19.640625 25.50793457 C-19.640625 10.50793457 -19.640625 10.50793457 -15.640625 4.50793457 C-10.60030147 0.04677008 -6.41166158 -0.06380162 0 0 Z " fill="#000000" transform="translate(147.640625,303.4920654296875)"/>
</svg>
