<?xml version="1.0" encoding="UTF-8"?>
<svg version="1.1" xmlns="http://www.w3.org/2000/svg" width="512" height="512">
<path d="M0 0 C4.72423033 3.51983169 7.81408663 8.73703173 8.9765625 14.47265625 C9.07491966 16.1621663 9.12249221 17.85497624 9.13478088 19.54730225 C9.1445697 20.57091354 9.15435852 21.59452484 9.16444397 22.64915466 C9.17019943 23.76621292 9.1759549 24.88327118 9.18188477 26.03417969 C9.19178436 27.21494583 9.20168396 28.39571198 9.21188354 29.61225891 C9.2380456 32.84537733 9.25991827 36.07849065 9.27988553 39.31165218 C9.30177716 42.69227165 9.32915028 46.07284663 9.35594177 49.45343018 C9.40582575 55.85293789 9.45078048 62.25247036 9.49396414 68.65202641 C9.54337326 75.93858786 9.59827774 83.22510466 9.65364373 90.51162291 C9.76739782 105.49859239 9.87425113 120.48560395 9.9765625 135.47265625 C10.79334473 134.64016357 11.61012695 133.8076709 12.45166016 132.94995117 C15.49666113 129.85047097 18.55172656 126.76107641 21.60986328 123.67456055 C22.92966997 122.33970826 24.24676643 121.00217043 25.56103516 119.66186523 C27.45542039 117.73091162 29.35948357 115.8099659 31.265625 113.890625 C31.84712311 113.29364304 32.42862122 112.69666107 33.02774048 112.08158875 C38.39617505 106.71098244 43.07280726 104.04195474 50.8515625 103.97265625 C58.77435516 104.14816115 62.87600126 106.28829606 68.2890625 111.84765625 C71.9562976 117.55224418 73.88279396 122.65621961 72.9765625 129.47265625 C69.90603791 142.16415788 57.02616535 151.56146658 48.0234375 160.5234375 C46.79252422 161.75247977 45.56183592 162.98174741 44.33135986 164.21122742 C41.11997802 167.41882713 37.90560609 170.62341342 34.69055176 173.82733154 C31.41947939 177.0881367 28.15126453 180.35180311 24.8828125 183.61523438 C19.60796118 188.8813445 14.33143299 194.14576695 9.05252075 199.4078064 C6.79311955 201.66018657 4.54360787 203.91818231 2.32012939 206.20622253 C-2.33621487 210.70931381 -6.59992269 211.67006039 -12.8984375 211.91015625 C-20.18726612 211.64757733 -25.20794885 210.35219512 -30.40724182 205.03462219 C-31.25970993 204.06969345 -32.11217804 203.10476471 -32.99047852 202.1105957 C-38.53387914 195.92971179 -44.34179901 190.06259171 -50.24998283 184.23207664 C-52.04052838 182.46403451 -53.82667363 180.69164876 -55.61170959 178.91804504 C-60.67727405 173.88565247 -65.74736872 168.85788643 -70.82739258 163.84008789 C-73.95883143 160.74639845 -77.08282163 157.64535054 -80.2022419 154.53954506 C-81.38234258 153.36745203 -82.56520459 152.19813194 -83.7509594 151.03175926 C-85.40602375 149.40333166 -87.0514263 147.76567739 -88.69506836 146.12573242 C-89.63007675 145.20040207 -90.56508514 144.27507172 -91.52842712 143.32170105 C-96.66512214 137.45612455 -99.48523131 131.65199198 -99.3671875 123.7578125 C-98.48743928 117.90948626 -95.43638396 112.33315587 -90.9609375 108.47265625 C-86.1534822 105.1994952 -83.18687785 104.14490351 -77.2734375 104.03515625 C-75.51773437 103.97521484 -75.51773437 103.97521484 -73.7265625 103.9140625 C-66.16589316 105.05454321 -60.72984681 110.32134953 -55.5546875 115.6484375 C-54.98890991 116.21845993 -54.42313232 116.78848236 -53.84020996 117.3757782 C-52.06068818 119.17189631 -50.29197318 120.97822664 -48.5234375 122.78515625 C-47.30799558 124.01566965 -46.09185546 125.24549381 -44.875 126.47460938 C-41.91636112 129.46606425 -38.96735616 132.46671683 -36.0234375 135.47265625 C-36.02104915 134.85642899 -36.01866079 134.24020172 -36.01620007 133.6053009 C-35.95698307 118.58935785 -35.88139036 103.57359333 -35.78772259 88.55783081 C-35.74281703 81.29621841 -35.70339041 74.03465447 -35.67700195 66.77294922 C-35.65397928 60.44132462 -35.6205339 54.10985409 -35.57473594 47.77835178 C-35.55086064 44.42790452 -35.53364986 41.07774979 -35.52582359 37.72720337 C-35.51618708 33.98066605 -35.4881312 30.23468212 -35.45581055 26.48828125 C-35.45724564 25.3856041 -35.45868073 24.28292694 -35.4601593 23.14683533 C-35.36910082 15.67290853 -34.24731453 10.23614045 -30.3984375 3.72265625 C-22.23790345 -4.00837601 -9.9314494 -5.03795342 0 0 Z " fill="#000000" transform="translate(397.0234375,215.52734375)"/>
<path d="M0 0 C0.94565645 -0.00445784 1.89131291 -0.00891569 2.86562562 -0.01350862 C4.42702606 -0.01323207 4.42702606 -0.01323207 6.01996994 -0.01294994 C7.12423694 -0.01662663 8.22850395 -0.02030332 9.36623359 -0.02409142 C13.08567622 -0.0351502 16.80509094 -0.03897581 20.52454758 -0.04278088 C23.18355095 -0.04904381 25.84255131 -0.05567749 28.50155258 -0.0626936 C36.49446776 -0.08245573 44.48738421 -0.09252364 52.48031771 -0.10142139 C56.24404204 -0.10580447 60.00776497 -0.1111712 63.77148819 -0.11641026 C76.28227191 -0.13342185 88.79305476 -0.14791635 101.30384827 -0.155159 C104.55042904 -0.1570689 107.7970098 -0.15898923 111.04359055 -0.16094494 C111.85051447 -0.16142868 112.6574384 -0.16191242 113.48881456 -0.16241082 C126.56248844 -0.17071237 139.63607085 -0.19605168 152.70970479 -0.22852562 C166.13099269 -0.26159144 179.5522341 -0.2796073 192.97356296 -0.28280324 C200.50963052 -0.28496872 208.04556468 -0.29372293 215.58159256 -0.31926441 C221.99915468 -0.34096489 228.41655099 -0.34902509 234.83414564 -0.33929763 C238.10801307 -0.334751 241.38146672 -0.3388392 244.65530205 -0.35605907 C248.20659149 -0.37369457 251.75701067 -0.3667119 255.30830002 -0.35352612 C256.34031076 -0.36449536 257.3723215 -0.37546461 258.43560529 -0.38676625 C265.44620112 -0.3238461 269.79017045 0.88817682 275.12513351 5.66156483 C280.57743578 12.61662178 281.11384185 18.50480583 280.41810226 27.13422108 C279.36773977 32.87301979 276.86156385 36.20937435 272.42982101 39.90765858 C266.40802325 43.57920129 260.39844149 43.42236575 253.57609177 43.40164661 C251.93528068 43.40844328 251.93528068 43.40844328 250.2613219 43.41537726 C246.59495187 43.42804025 242.92873003 43.42639964 239.26234055 43.42474842 C236.63407322 43.43073243 234.00580765 43.43753768 231.3775444 43.44510365 C224.97880465 43.46169958 218.58010174 43.46721254 212.18134226 43.4683284 C206.97941256 43.46927945 201.77749501 43.4733926 196.57556915 43.47972965 C181.82107957 43.49733749 167.06661906 43.50656913 152.3121189 43.5050687 C151.51709829 43.50498879 150.72207769 43.50490888 149.90296555 43.50482655 C148.70897565 43.5047039 148.70897565 43.5047039 147.49086474 43.50457878 C134.58941374 43.5037658 121.68807947 43.5229077 108.78666224 43.55110328 C95.5336399 43.57983835 82.28067448 43.59364326 69.0276202 43.59191573 C61.58938279 43.59125209 54.15126779 43.5967331 46.71305847 43.61827183 C39.71821914 43.63839726 32.72364234 43.63780357 25.72879028 43.62323856 C23.16172534 43.6211449 20.59464436 43.62588439 18.02760696 43.63795948 C14.5227929 43.65337793 11.0188746 43.64412506 7.51408005 43.6286974 C6.49870135 43.63898452 5.48332266 43.64927165 4.43717492 43.65987051 C-2.75296081 43.58994721 -8.17882626 42.1369312 -13.64049149 37.31781483 C-14.32305008 36.45349842 -14.32305008 36.45349842 -15.01939774 35.57172108 C-15.49248367 34.99293201 -15.96556961 34.41414295 -16.45299149 33.81781483 C-20.15565442 28.29585038 -19.04633409 20.49699916 -18.58189774 14.13422108 C-17.15152325 8.42133987 -14.10969661 5.22709562 -9.26549149 2.04437733 C-6.11258569 0.33990621 -3.50981483 0.00767145 0 0 Z " fill="#000000" transform="translate(82.5818977355957,127.86577892303467)"/>
<path d="M0 0 C0.82113047 -0.00382555 1.64226094 -0.00765109 2.48827416 -0.01159257 C5.22565238 -0.02186909 7.96281876 -0.01794064 10.70021057 -0.01396179 C12.66853529 -0.0183112 14.63685832 -0.02349511 16.60517883 -0.02944946 C21.94192725 -0.04282541 27.27860479 -0.04341973 32.6153667 -0.04088616 C37.07364854 -0.03981559 41.53191608 -0.04470198 45.99019486 -0.04949158 C56.50894146 -0.06058172 67.02765236 -0.06102681 77.54640198 -0.05497742 C88.39197432 -0.04893592 99.237417 -0.06125428 110.08296722 -0.08254749 C119.40121138 -0.10016832 128.71941428 -0.10616411 138.03767449 -0.10290974 C143.60016886 -0.10109767 149.16257071 -0.10372571 154.72504997 -0.11762428 C159.95604043 -0.13020594 165.18682879 -0.12825522 170.41781616 -0.11521339 C172.33501822 -0.11284889 174.25223452 -0.11557777 176.16942024 -0.12383652 C178.79172852 -0.13431626 181.4133602 -0.12619361 184.03564453 -0.11352539 C184.78964757 -0.12089968 185.54365061 -0.12827396 186.32050222 -0.13587171 C192.70751014 -0.07120477 197.78770294 1.60992619 203.33131409 4.88569641 C208.1098743 9.92973219 209.82639224 15.3690162 210.08131409 22.26069641 C209.84461867 27.89835092 209.00193937 32.66961844 205.58131409 37.26069641 C198.82189914 43.13952702 193.30638873 44.41108679 184.52339172 44.40113831 C183.70482453 44.40410943 182.88625733 44.40708055 182.04288507 44.41014171 C179.29624431 44.41882273 176.54964717 44.42033645 173.80299377 44.42182922 C171.83511258 44.42645783 169.86723228 44.43148254 167.89935303 44.43687439 C162.55005013 44.44999651 157.20075977 44.45644301 151.85144329 44.46088505 C148.50920378 44.46381614 145.1669677 44.46792102 141.82472992 44.47238922 C131.36705725 44.48606379 120.90939241 44.49573059 110.45171142 44.49959111 C98.38099397 44.5040716 86.31038977 44.52161929 74.23970675 44.55059171 C64.90879037 44.5722104 55.57790585 44.5822955 46.24696469 44.58363223 C40.67435684 44.58468014 35.10185546 44.59058505 29.52927399 44.60845184 C24.28602345 44.62493563 19.04295938 44.62708646 13.79969215 44.61831284 C11.87765058 44.61754262 9.95559898 44.62188307 8.03358269 44.63177109 C5.40455763 44.64450076 2.77619197 44.63860831 0.14717102 44.62818909 C-0.98690307 44.64027369 -0.98690307 44.64027369 -2.14388776 44.65260243 C-8.67359892 44.59230489 -14.45896054 42.96392884 -19.73118591 39.01069641 C-25.05636876 33.5616721 -25.63739188 29.27748833 -25.91868591 21.82319641 C-25.74773048 13.5847726 -23.7240693 9.56607979 -18.04368591 3.88569641 C-12.3889847 0.38516709 -6.50137198 -0.032491 0 0 Z " fill="#000000" transform="translate(89.41868591308594,233.7393035888672)"/>
<path d="M0 0 C1.75994041 -0.01062721 1.75994041 -0.01062721 3.55543518 -0.02146912 C4.83399384 -0.0189917 6.11255249 -0.01651428 7.42985535 -0.01396179 C8.79690835 -0.01831149 10.16395891 -0.02349551 11.53100586 -0.02944946 C15.23776782 -0.04282523 18.94442773 -0.04341956 22.65120912 -0.04088616 C25.74991857 -0.03981515 28.84860749 -0.04470332 31.94731253 -0.04949158 C39.26149612 -0.06058256 46.57562836 -0.06102695 53.88981628 -0.05497742 C61.42371219 -0.0489417 68.95742114 -0.06123929 76.49128515 -0.08254749 C82.96875184 -0.10019113 89.44615919 -0.10616036 95.92364901 -0.10290974 C99.78820961 -0.10110061 103.65263693 -0.10369561 107.51717567 -0.11762428 C111.15422269 -0.13024255 114.79097958 -0.12822107 118.42802238 -0.11521339 C120.38976174 -0.11173753 122.35151012 -0.12299704 124.31321716 -0.13478088 C131.6448477 -0.09126388 138.23164153 0.07860664 144.16105652 4.90913391 C144.83007996 5.76378235 144.83007996 5.76378235 145.51261902 6.63569641 C146.20484558 7.48261047 146.20484558 7.48261047 146.91105652 8.34663391 C150.93187783 14.62116398 150.83830807 21.01732335 150.13761902 28.26069641 C148.25891851 34.95356696 144.14407261 38.80579702 138.31612015 42.37679482 C135.53023755 43.5071344 133.2880032 43.51843721 130.28160095 43.52812195 C129.08443954 43.53665192 127.88727814 43.54518188 126.65383911 43.55397034 C125.34363297 43.55306396 124.03342682 43.55215759 122.68351746 43.55122375 C121.28705486 43.55720948 119.89059557 43.56401513 118.49414062 43.57157898 C114.70262124 43.58924507 110.91119214 43.5939347 107.11963558 43.59521055 C104.7489446 43.59663274 102.37827653 43.60090369 100.00759125 43.60620499 C91.73142034 43.62470958 83.45531384 43.63287535 75.17912292 43.63130188 C67.47422446 43.63010141 59.76960655 43.65118391 52.06477904 43.68278921 C45.44295875 43.70898033 38.82122989 43.71966794 32.19935822 43.71839106 C28.24754364 43.71788212 24.29597822 43.7235272 20.34421539 43.74474716 C16.6242254 43.76417676 12.90472094 43.76422227 9.18471336 43.7497139 C7.17762259 43.74664086 5.17053154 43.76327051 3.16351318 43.78059387 C-4.67801369 43.72615811 -10.85873473 43.2133408 -16.70222473 37.44429016 C-17.24556458 36.57997375 -17.24556458 36.57997375 -17.79988098 35.69819641 C-18.18015442 35.11940735 -18.56042786 34.54061829 -18.95222473 33.94429016 C-22.21528107 27.90833615 -22.06881167 18.43839355 -20.17878723 11.89350891 C-15.97887173 4.05134304 -8.70248683 0.01755939 0 0 Z " fill="#000000" transform="translate(84.86238098144531,340.7393035888672)"/>
</svg>
